<svg xmlns="http://www.w3.org/2000/svg" class="svg css-uwwqev" viewBox="0 0 20 20"><path fill-rule="evenodd" clip-rule="evenodd" d="M10 20C15.5228 20 20 15.5228 20 10C20 4.47715 15.5228 0 10 0C4.47715 0 0 4.47715 0 10C0 15.5228 4.47715 20 10 20ZM10.3827 3.07523C10.2512 2.71987 9.74862 2.71987 9.61712 3.07523L8.69694 5.562C8.1595 7.01439 7.01439 8.1595 5.562 8.69694L3.07523 9.61712C2.71987 9.74862 2.71987 10.2512 3.07523 10.3827L5.562 11.3029C7.01439 11.8403 8.1595 12.9855 8.69694 14.4378L9.61712 16.9246C9.74862 17.28 10.2512 17.28 10.3827 16.9246L11.3029 14.4378C11.8403 12.9855 12.9855 11.8403 14.4378 11.3029L16.9246 10.3827C17.28 10.2512 17.28 9.74862 16.9246 9.61712L14.4378 8.69694C12.9855 8.1595 11.8403 7.01439 11.3029 5.562L10.3827 3.07523Z" fill="#ccc"></path></svg>